<?xml version="1.0" standalone="no"?>
<!DOCTYPE svg PUBLIC "-//W3C//DTD SVG 20010904//EN"
 "http://www.w3.org/TR/2001/REC-SVG-20010904/DTD/svg10.dtd">
<svg version="1.0" xmlns="http://www.w3.org/2000/svg"
 width="256.000000pt" height="256.000000pt" viewBox="0 0 256.000000 256.000000"
 preserveAspectRatio="xMidYMid meet">
<metadata>
Created by potrace 1.11, written by Peter Selinger 2001-2013
</metadata>
<g transform="translate(0.000000,256.000000) scale(0.100000,-0.100000)"
fill="#000000" stroke="none">
<path d="M1229 2526 c-19 -7 -61 -30 -94 -52 -215 -146 -497 -238 -743 -243
-107 -3 -128 -7 -169 -38 -49 -36 -56 -78 -50 -303 3 -107 8 -220 12 -250 10
-98 15 -144 25 -200 5 -30 12 -71 15 -90 13 -75 59 -248 92 -344 160 -466 455
-788 851 -930 90 -32 101 -32 188 -2 283 97 526 297 694 571 117 190 233 515
265 743 2 12 8 53 14 90 24 155 36 330 34 513 -1 207 -26 233 -238 243 -140 6
-159 9 -283 42 -160 41 -319 112 -447 199 -82 55 -119 67 -166 51z"/>
</g>
</svg>
